<?xml version="1.0" encoding="UTF-8"?>
<svg version="1.1" xmlns="http://www.w3.org/2000/svg" width="482" height="457">
<path d="M0 0 C1.28423161 2.4594694 2.38094394 4.84486379 3.43359375 7.40234375 C3.91240746 8.52993858 3.91240746 8.52993858 4.40089417 9.68031311 C5.42333274 12.09520242 6.43043447 14.51616523 7.4375 16.9375 C8.11165557 18.53491688 8.78677516 20.13192729 9.46289062 21.72851562 C11.05405943 25.49324532 12.62270042 29.26683919 14.18377686 33.04412842 C14.90644075 34.77580901 15.65108128 36.49828234 16.39892578 38.21923828 C16.77388184 39.09692871 17.14883789 39.97461914 17.53515625 40.87890625 C17.84976807 41.59763916 18.16437988 42.31637207 18.48852539 43.05688477 C19.11097148 45.42158569 18.87514553 46.73322463 18 49 C16.1796875 50.3515625 16.1796875 50.3515625 13.875 51.625 C7.39951063 55.70445502 3.6281298 61.31901089 0.5625 68.25 C-1.25533476 80.36889837 -0.18306473 89.99922072 6.625 100.25 C11.47384186 106.28357149 18.75221146 110.63657026 26.45654297 111.74633789 C40.97697242 113.19447824 52.60756979 106.97608593 65.5625 101.1875 C67.77478573 100.21624414 69.98792715 99.24693509 72.2019043 98.27954102 C76.53780896 96.38239922 80.86945155 94.47607143 85.19726562 92.56054688 C92.21056228 89.45948337 99.25693735 86.44094491 106.3125 83.4375 C108.42983976 82.52769802 110.54703047 81.61754907 112.6640625 80.70703125 C116.64866792 78.99799433 120.64091375 77.30898527 124.64137268 75.63752747 C127.20763745 74.56419451 129.77095535 73.48392279 132.33407593 72.40310669 C134.11418291 71.65578007 135.89844358 70.91837086 137.68286133 70.18139648 C144.81313637 67.17081245 152.15758857 63.98330565 157.61791992 58.32275391 C159 57 159 57 161 57 C165.49537396 65.99074792 162.93105259 83.53550746 159.875 92.875 C152.3297992 114.07329289 138.60558338 127.24436548 118.64285278 136.76919556 C110.04682543 140.77245625 101.32170167 144.48999507 92.60058594 148.21044922 C89.00179587 149.74923211 85.41111275 151.30596147 81.8203125 152.86328125 C67.37176767 159.07246805 52.93601619 165.2673096 37 166 C36.28585938 166.0515625 35.57171875 166.103125 34.8359375 166.15625 C12.12589234 167.06768994 -10.55451636 157.7296097 -27.19921875 142.6484375 C-44.38160746 126.40065571 -53.86086156 104.40868808 -54.99609375 80.8828125 C-55.01872803 58.3843379 -47.13445725 36.7369292 -32 20 C-31.36320312 19.29359375 -30.72640625 18.5871875 -30.0703125 17.859375 C-24.11092378 11.58885353 -8.96733492 -2.98911164 0 0 Z " fill="#67C3FD" transform="translate(129,218)"/>
<path d="M0 0 C16.24014477 15.71074163 25.16967015 36.69085401 25.82739258 59.24267578 C25.95482958 70.06778976 24.91417274 79.60321837 21.42529297 89.87475586 C21.07466797 90.9150293 20.72404297 91.95530273 20.36279297 93.02709961 C13.2591634 111.79745413 0.29719833 126.41502665 -16.57470703 136.87475586 C-17.47189453 137.43549805 -18.36908203 137.99624023 -19.29345703 138.57397461 C-23.62451906 141.14026948 -23.62451906 141.14026948 -25.57470703 141.87475586 C-28.57470703 140.87475586 -28.57470703 140.87475586 -30.12109375 137.90649414 C-30.67665191 136.59066057 -31.22025784 135.26974222 -31.75439453 133.94506836 C-32.04903595 133.24010223 -32.34367737 132.53513611 -32.64724731 131.80880737 C-33.59174841 129.54325938 -34.52112514 127.27186915 -35.44970703 124.99975586 C-36.37171083 122.77089508 -37.29680078 120.54333893 -38.22271729 118.31610107 C-38.82496679 116.86571561 -39.42504123 115.41442497 -40.02288818 113.96221924 C-42.10571497 108.92156632 -44.34082923 103.97318557 -46.73144531 99.06958008 C-47.57470703 96.87475586 -47.57470703 96.87475586 -47.57470703 92.87475586 C-45.81689453 91.41772461 -45.81689453 91.41772461 -43.44970703 90.06225586 C-35.64025615 85.14610232 -30.68308986 78.99528834 -28.57470703 69.87475586 C-27.69679688 60.97023865 -27.59262741 52.64368627 -32.57470703 44.87475586 C-33.19345703 43.83254883 -33.19345703 43.83254883 -33.82470703 42.76928711 C-38.28098421 36.02157195 -44.88638902 31.72753589 -52.63720703 29.49975586 C-70.63387368 26.64314211 -86.90836227 36.29864257 -102.94970703 43.37475586 C-107.67990327 45.45257648 -112.41206144 47.52589105 -117.14501953 49.59741211 C-118.34139038 50.12162247 -119.53776123 50.64583282 -120.77038574 51.18592834 C-128.87704917 54.72732239 -137.01945926 58.17179872 -145.19189453 61.55834961 C-147.34249418 62.45407188 -149.4930485 63.34990298 -151.64355469 64.24584961 C-154.70285362 65.51967555 -157.76389569 66.78752623 -160.8336792 68.03588867 C-174.61624017 73.40462368 -174.61624017 73.40462368 -186.14013672 82.44335938 C-187.57470703 83.87475586 -187.57470703 83.87475586 -189.57470703 83.87475586 C-194.31114379 67.18569787 -189.82051253 48.48277854 -181.80126953 33.67553711 C-168.11518532 9.66202716 -141.56656149 1.25571863 -117.43626404 -8.69296265 C-113.17290538 -10.45367652 -108.9277704 -12.25219745 -104.69189453 -14.07836914 C-84.76859056 -22.63675672 -84.76859056 -22.63675672 -74.57470703 -24.12524414 C-73.78322266 -24.26317383 -72.99173828 -24.40110352 -72.17626953 -24.54321289 C-45.420932 -28.32095988 -19.42593722 -18.10213633 0 0 Z " fill="#2703DA" transform="translate(389.57470703125,89.125244140625)"/>
<path d="M0 0 C22.43414339 0.28761722 44.24881326 11.56907268 59.8125 27.25 C69.99961875 38.66079668 77.17809475 52.42545229 80.8125 67.25 C81.03679687 68.11496094 81.26109375 68.97992188 81.4921875 69.87109375 C86.51761053 92.48549739 80.64602575 115.71018766 68.890625 135.234375 C65.0784171 140.76637594 60.55004636 145.5057146 55.8125 150.25 C55.08160156 150.9925 54.35070312 151.735 53.59765625 152.5 C47.92987418 157.90391885 37.97466285 166.25 29.8125 166.25 C30.080625 165.58355469 30.34875 164.91710937 30.625 164.23046875 C32.039087 160.68129643 33.43943795 157.1277032 34.8125 153.5625 C35.07289063 152.90572266 35.33328125 152.24894531 35.6015625 151.57226562 C44.53280262 128.22925167 40.33842625 103.88270266 30.5 81.75 C30.05035889 80.73413818 29.60071777 79.71827637 29.13745117 78.67163086 C24.4646932 68.6419933 18.19482606 60.30344765 7.75 56 C-1.00760846 53.00211247 -9.44012736 53.55850073 -18.1875 56.25 C-16.79593242 45.63841956 -14.06907916 35.37252023 -11.3918457 25.02807617 C-10.61730237 22.03273143 -9.85208658 19.03510887 -9.08789062 16.03710938 C-8.59950144 14.13527712 -8.11058874 12.2335792 -7.62109375 10.33203125 C-7.39191757 9.43426468 -7.16274139 8.53649811 -6.92662048 7.61152649 C-6.71292313 6.78944199 -6.49922577 5.96735748 -6.27905273 5.12036133 C-6.09189194 4.39488602 -5.90473114 3.66941071 -5.7118988 2.92195129 C-4.69876266 -0.30825112 -3.14404337 0.06154734 0 0 Z " fill="#66C2FD" transform="translate(266.1875,166.75)"/>
<path d="M0 0 C-0.268125 0.66515625 -0.53625 1.3303125 -0.8125 2.015625 C-11.85233952 29.76048485 -14.12413626 54.03795092 -2.05224609 82.21191406 C4.01360472 95.67610413 9.67884286 105.34425388 24 111 C31.72027498 113.48312938 40.40323131 112.33746729 48 110 C46.75181956 117.30107955 45.24118921 124.48200502 43.43359375 131.6640625 C43.19463882 132.62275238 42.9556839 133.58144226 42.70948792 134.56918335 C42.20950643 136.57113256 41.70777646 138.57264586 41.2043457 140.57373047 C40.43103773 143.6507133 39.66539343 146.7295368 38.90039062 149.80859375 C38.41191167 151.76053017 37.92299557 153.71235726 37.43359375 155.6640625 C37.20441757 156.5868399 36.97524139 157.50961731 36.73912048 158.46035767 C36.41857445 159.72835709 36.41857445 159.72835709 36.09155273 161.02197266 C35.90439194 161.76822906 35.71723114 162.51448547 35.5243988 163.28335571 C35 165 35 165 34 166 C14.7159237 167.3299363 -5.87659922 159.13663849 -20.6875 147.0234375 C-34.29179022 135.11968355 -45.22936426 120.7814605 -50 103 C-50 101.68 -50 100.36 -50 99 C-50.66 98.67 -51.32 98.34 -52 98 C-52.733846 94.04692393 -52.81217496 90.01140622 -53 86 C-53.08121094 84.34291016 -53.08121094 84.34291016 -53.1640625 82.65234375 C-53.7543898 59.28074924 -45.72029754 36.47810828 -29.56860352 19.48779297 C-10.38540155 0 -10.38540155 0 0 0 Z " fill="#2704DA" transform="translate(194,115)"/>
<path d="M0 0 C0.66 0 1.32 0 2 0 C6.47658506 8.95317012 3.72450792 26.21445339 1 35.5625 C0.36895574 37.38770789 -0.28165817 39.20735232 -1 41 C-1.33 41 -1.66 41 -2 41 C-2.25098474 34.59988922 -2.25098474 34.59988922 -1.00439453 31.62036133 C0.13548712 28.64652813 0.22927309 26.43703426 0.1953125 23.26171875 C0.18886719 22.19501953 0.18242187 21.12832031 0.17578125 20.02929688 C0.15902344 18.92650391 0.14226562 17.82371094 0.125 16.6875 C0.11597656 15.56537109 0.10695313 14.44324219 0.09765625 13.28710938 C0.07414486 10.52452091 0.04128155 7.76237068 0 5 C-1.65 5.33 -3.3 5.66 -5 6 C-3.38405168 3.95880212 -1.7143618 1.95927063 0 0 Z " fill="#8FCBEF" transform="translate(288,275)"/>
<path d="M0 0 C0.66 0 1.32 0 2 0 C1.84402344 1.17433594 1.68804687 2.34867188 1.52734375 3.55859375 C-0.48077802 19.69956917 0.01663652 34.19180907 4 50 C0.4584709 47.52092963 -0.43246235 45.078719 -1.234375 41 C-2.14003123 34.99154942 -2.29678965 29.06705784 -2.25 23 C-2.25773438 21.99710938 -2.26546875 20.99421875 -2.2734375 19.9609375 C-2.25574149 13.112583 -1.44552496 6.6909037 0 0 Z " fill="#4F3CC3" transform="translate(183,136)"/>
<path d="M0 0 C6.79135443 0.03942731 13.24156946 1.65934246 19.8125 3.25 C18.8225 3.91 17.8325 4.57 16.8125 5.25 C14.80348048 4.61102817 12.80476209 3.93944631 10.8125 3.25 C7.15258166 3.00999254 7.15258166 3.00999254 3.4375 3.125 C1.56964844 3.15207031 1.56964844 3.15207031 -0.3359375 3.1796875 C-1.27695312 3.20289063 -2.21796875 3.22609375 -3.1875 3.25 C-4.30126866 5.47753733 -4.41908695 7.02904345 -4.625 9.5 C-5.00717524 13.3155883 -5.80399137 16.65287756 -7.1875 20.25 C-7.8475 20.25 -8.5075 20.25 -9.1875 20.25 C-7.29058674 0.14271948 -7.29058674 0.14271948 0 0 Z " fill="#9DD5F2" transform="translate(266.1875,166.75)"/>
<path d="M0 0 C0.66 0 1.32 0 2 0 C4.47168075 7.62912483 4.22635304 15.03988787 4.125 23 C4.11494978 24.36067049 4.10582754 25.72134817 4.09765625 27.08203125 C4.0742082 30.38820647 4.04138856 33.6940088 4 37 C1.78069421 33.67104131 1.72130255 32.45155317 1.62109375 28.5546875 C1.58693359 27.47703125 1.55277344 26.399375 1.51757812 25.2890625 C1.49115234 24.16242188 1.46472656 23.03578125 1.4375 21.875 C1.23573286 14.52552468 0.93325584 7.29636384 0 0 Z " fill="#93D0F3" transform="translate(305,268)"/>
<path d="M0 0 C-2 5 -4 10 -6 15 C-6.99 15 -7.98 15 -9 15 C-8.67 12.03 -8.34 9.06 -8 6 C-9.32 5.67 -10.64 5.34 -12 5 C-10.37750059 4.16180842 -8.75191503 3.3295884 -7.125 2.5 C-6.22007812 2.0359375 -5.31515625 1.571875 -4.3828125 1.09375 C-2 0 -2 0 0 0 Z " fill="#4530CA" transform="translate(194,115)"/>
<path d="M0 0 C1.11475495 3.34426486 0.87077674 4.34848905 0.00390625 7.66796875 C-0.22490234 8.56064453 -0.45371094 9.45332031 -0.68945312 10.37304688 C-0.93630859 11.30181641 -1.18316406 12.23058594 -1.4375 13.1875 C-1.68048828 14.12787109 -1.92347656 15.06824219 -2.17382812 16.03710938 C-2.77520947 18.36009221 -3.38418746 20.68080883 -4 23 C-4.33 23 -4.66 23 -5 23 C-5.21192221 17.80790596 -4.5912689 13.873261 -3 9 C-4.98 8.34 -6.96 7.68 -9 7 C-8.01 6.01 -7.02 5.02 -6 4 C-6.33 3.34 -6.66 2.68 -7 2 C-4.69 1.34 -2.38 0.68 0 0 Z " fill="#3C23CF" transform="translate(241,225)"/>
<path d="M0 0 C0.33 0 0.66 0 1 0 C1.66 5.94 2.32 11.88 3 18 C3.66 17.67 4.32 17.34 5 17 C6.99960012 16.960008 9.00047242 16.95653201 11 17 C9.33333333 18.66666667 7.66666667 20.33333333 6 22 C5.443125 22.598125 4.88625 23.19625 4.3125 23.8125 C3 25 3 25 1 25 C0.10250178 21.9317362 -0.11711768 19.20730024 -0.09765625 16.015625 C-0.09443359 15.08105469 -0.09121094 14.14648438 -0.08789062 13.18359375 C-0.07951172 12.21550781 -0.07113281 11.24742187 -0.0625 10.25 C-0.05798828 9.26644531 -0.05347656 8.28289062 -0.04882812 7.26953125 C-0.03706483 4.84629209 -0.02062684 2.42317727 0 0 Z " fill="#5340BF" transform="translate(199,148)"/>
<path d="M0 0 C2.31 0.33 4.62 0.66 7 1 C4.28774467 3.16372228 1.72021433 4.70337668 -1.4765625 6.04296875 C-2.311875 6.39423828 -3.1471875 6.74550781 -4.0078125 7.10742188 C-4.87148437 7.46384766 -5.73515625 7.82027344 -6.625 8.1875 C-7.49640625 8.55552734 -8.3678125 8.92355469 -9.265625 9.30273438 C-15.73105577 12 -15.73105577 12 -18 12 C-18 11.34 -18 10.68 -18 10 C-17.01 10 -16.02 10 -15 10 C-15 9.01 -15 8.02 -15 7 C-13.989375 6.896875 -12.97875 6.79375 -11.9375 6.6875 C-7.71206877 5.94972629 -4.78838078 4.969958 -1 3 C-0.67 2.01 -0.34 1.02 0 0 Z " fill="#5844C9" transform="translate(234,150)"/>
<path d="M0 0 C2.1519437 3.22791555 2.20086443 4.28400809 2 8 C1.01 8.33 0.02 8.66 -1 9 C-1 11.31 -1 13.62 -1 16 C-1.99 16 -2.98 16 -4 16 C-4.33 16.99 -4.66 17.98 -5 19 C-4.39297368 12.3227105 -2.22368606 6.29872004 0 0 Z " fill="#513BCE" transform="translate(148,159)"/>
<path d="M0 0 C0.66 0 1.32 0 2 0 C2 0.66 2 1.32 2 2 C2.99 2.66 3.98 3.32 5 4 C3.27656245 4.84511824 1.54595947 5.67563354 -0.1875 6.5 C-1.15042969 6.9640625 -2.11335938 7.428125 -3.10546875 7.90625 C-5.98922693 8.99592921 -7.95354861 9.22277524 -11 9 C-10.67 7.68 -10.34 6.36 -10 5 C-7.03 5 -4.06 5 -1 5 C-0.67 3.35 -0.34 1.7 0 0 Z " fill="#442BCE" transform="translate(306,118)"/>
<path d="M0 0 C0.39872314 0.65194336 0.79744629 1.30388672 1.20825195 1.97558594 C2.80451991 4.18546317 2.80451991 4.18546317 5.17651367 4.45410156 C5.99869385 4.4331543 6.82087402 4.41220703 7.66796875 4.390625 C9.00698242 4.37128906 9.00698242 4.37128906 10.37304688 4.3515625 C11.30181641 4.31804687 12.23058594 4.28453125 13.1875 4.25 C14.59805664 4.22292969 14.59805664 4.22292969 16.03710938 4.1953125 C18.35909889 4.1481655 20.6790369 4.08238231 23 4 C23 4.66 23 5.32 23 6 C21.9378125 5.97679687 20.875625 5.95359375 19.78125 5.9296875 C9.24509835 5.75383769 9.24509835 5.75383769 -1 8 C-0.67 5.36 -0.34 2.72 0 0 Z " fill="#9DD6F2" transform="translate(249,215)"/>
<path d="M0 0 C0.99 0 1.98 0 3 0 C3 0.66 3 1.32 3 2 C3.66 2 4.32 2 5 2 C5.26554687 2.60328125 5.53109375 3.2065625 5.8046875 3.828125 C6.15789062 4.62734375 6.51109375 5.4265625 6.875 6.25 C7.22304688 7.03890625 7.57109375 7.8278125 7.9296875 8.640625 C8.61724472 10.15626208 9.346295 11.65411278 10.125 13.125 C11.23518586 15.50396971 11.14403872 17.40730309 11 20 C9.09338764 18.09338764 8.25991176 16.75363483 7.08984375 14.375 C6.56487305 13.31539062 6.56487305 13.31539062 6.02929688 12.234375 C5.66900391 11.49703125 5.30871094 10.7596875 4.9375 10 C4.39125977 8.89398438 4.39125977 8.89398438 3.83398438 7.765625 C3.15956372 6.39933104 2.48678609 5.032224 1.81616211 3.6640625 C1.21589427 2.44018408 0.60962281 1.21924563 0 0 Z " fill="#8DCDF2" transform="translate(288,232)"/>
<path d="M0 0 C-0.020625 1.216875 -0.04125 2.43375 -0.0625 3.6875 C-0.06824116 6.91977322 0.21233685 9.84934741 1 13 C-1.9555377 10.24829249 -4.11563315 7.58029701 -6 4 C-6 3.34 -6 2.68 -6 2 C-1.125 0 -1.125 0 0 0 Z " fill="#3E24CF" transform="translate(158,233)"/>
<path d="M0 0 C-0.33 0.99 -0.66 1.98 -1 3 C-1.825 3.309375 -2.65 3.61875 -3.5 3.9375 C-4.325 4.288125 -5.15 4.63875 -6 5 C-6.33 6.32 -6.66 7.64 -7 9 C-11.455 8.01 -11.455 8.01 -16 7 C-13.10357159 4.64917788 -10.34643669 3.16480594 -6.875 1.8125 C-5.57175781 1.29623047 -5.57175781 1.29623047 -4.2421875 0.76953125 C-2 0 -2 0 0 0 Z " fill="#4A33CE" transform="translate(285,76)"/>
<path d="M0 0 C3.16115776 1.36983503 3.9927092 1.9890638 6 5 C6.99 5.33 7.98 5.66 9 6 C9 7.32 9 8.64 9 10 C4.32894208 8.44298069 0.91294315 5.91552627 -3 3 C-2.34 2.67 -1.68 2.34 -1 2 C-0.34 2.33 0.32 2.66 1 3 C0.67 2.01 0.34 1.02 0 0 Z " fill="#432ACE" transform="translate(176,259)"/>
<path d="M0 0 C0 0.66 0 1.32 0 2 C-0.99 2 -1.98 2 -3 2 C-3 2.66 -3 3.32 -3 4 C-4.29205831 5.05278825 -5.63634717 6.04175747 -7 7 C-7.825 7.7425 -8.65 8.485 -9.5 9.25 C-10.325 9.8275 -11.15 10.405 -12 11 C-14.15625 10.609375 -14.15625 10.609375 -16 10 C-3.42465753 0 -3.42465753 0 0 0 Z " fill="#5B47CF" transform="translate(238,96)"/>
<path d="M0 0 C1.90072266 0.23009766 1.90072266 0.23009766 3.83984375 0.46484375 C9.07384796 1.04639977 14.30316199 1.32712244 19.5625 1.5625 C20.47580078 1.60568359 21.38910156 1.64886719 22.33007812 1.69335938 C24.55327991 1.79811757 26.77656707 1.90029017 29 2 C29 2.33 29 2.66 29 3 C24.72918086 3.02897435 20.45838691 3.04678996 16.1875 3.0625 C14.36508789 3.07506836 14.36508789 3.07506836 12.50585938 3.08789062 C10.76079102 3.09272461 10.76079102 3.09272461 8.98046875 3.09765625 C7.90692139 3.10289307 6.83337402 3.10812988 5.72729492 3.11352539 C3 3 3 3 0 2 C0 1.34 0 0.68 0 0 Z " fill="#65BBEF" transform="translate(139,379)"/>
<path d="M0 0 C-1.98 0.99 -1.98 0.99 -4 2 C-3.34 2.66 -2.68 3.32 -2 4 C-3.98 4.99 -3.98 4.99 -6 6 C-6.33 5.01 -6.66 4.02 -7 3 C-7.99 3 -8.98 3 -10 3 C-10 3.66 -10 4.32 -10 5 C-11.65 5 -13.3 5 -15 5 C-10.87384475 1.53402959 -5.43913747 -2.39322049 0 0 Z " fill="#8ACCF5" transform="translate(217,312)"/>
<path d="M0 0 C0.99 0 1.98 0 3 0 C3 0.66 3 1.32 3 2 C3.66 2 4.32 2 5 2 C4.67 3.32 4.34 4.64 4 6 C3.34 6 2.68 6 2 6 C0.63838689 6.96113866 -0.69855198 7.95884159 -2 9 C-3 6 -3 6 -1.5625 2.8125 C-1.046875 1.884375 -0.53125 0.95625 0 0 Z " fill="#3C24D0" transform="translate(152,151)"/>
<path d="M0 0 C1.125 3.75 1.125 3.75 0 6 C1.32 6 2.64 6 4 6 C4 5.34 4 4.68 4 4 C5.32 4.33 6.64 4.66 8 5 C6.56705502 5.84114171 5.12845595 6.67265687 3.6875 7.5 C2.48673828 8.19609375 2.48673828 8.19609375 1.26171875 8.90625 C-1 10 -1 10 -4 10 C-2.66666667 6.66666667 -1.33333333 3.33333333 0 0 Z " fill="#A3D4EF" transform="translate(300,323)"/>
<path d="M0 0 C1.32 0.33 2.64 0.66 4 1 C3.39305845 4.15330554 2.3583335 6.18888867 0.4375 8.75 C-0.24505859 9.67039063 -0.24505859 9.67039063 -0.94140625 10.609375 C-1.46541016 11.29773438 -1.46541016 11.29773438 -2 12 C-2.66 11.01 -3.32 10.02 -4 9 C-3.67 8.34 -3.34 7.68 -3 7 C-2.34 7.33 -1.68 7.66 -1 8 C-1.20625 7.236875 -1.4125 6.47375 -1.625 5.6875 C-2 3 -2 3 0 0 Z " fill="#4024CE" transform="translate(396,197)"/>
<path d="M0 0 C0.598125 0.33 1.19625 0.66 1.8125 1 C4.05386471 2.20787988 4.05386471 2.20787988 7 2 C7 2.66 7 3.32 7 4 C5.02 4.99 3.04 5.98 1 7 C0.01 6.34 -0.98 5.68 -2 5 C-1.125 1.125 -1.125 1.125 0 0 Z " fill="#391BD1" transform="translate(371,219)"/>
<path d="M0 0 C-5.61 2.31 -11.22 4.62 -17 7 C-17 6.01 -17 5.02 -17 4 C-14.92227529 3.13227971 -12.83756823 2.28126381 -10.75 1.4375 C-9.58984375 0.96183594 -8.4296875 0.48617187 -7.234375 -0.00390625 C-4 -1 -4 -1 0 0 Z " fill="#533EC6" transform="translate(276,137)"/>
<path d="M0 0 C0 0.66 0 1.32 0 2 C-4.98229776 3.91626837 -9.72684667 4.5547115 -15 5 C-12.76504572 2.76504572 -10.97585464 1.9975209 -8.0625 0.8125 C-7.18722656 0.44769531 -6.31195313 0.08289063 -5.41015625 -0.29296875 C-3 -1 -3 -1 0 0 Z " fill="#4D36CC" transform="translate(260,88)"/>
<path d="M0 0 C2.475 0.99 2.475 0.99 5 2 C5.33 1.34 5.66 0.68 6 0 C7.32 0.66 8.64 1.32 10 2 C4.82421875 5.22265625 4.82421875 5.22265625 3 6 C2.01 5.67 1.02 5.34 0 5 C0 3.35 0 1.7 0 0 Z " fill="#4D36CA" transform="translate(361,225)"/>
<path d="M0 0 C6.02900687 0.51241107 12.02004643 1.069785 18 2 C18 2.33 18 2.66 18 3 C11.00727785 4.18933594 6.46738512 3.99415978 0 1 C0 0.67 0 0.34 0 0 Z " fill="#8FCBEF" transform="translate(147,329)"/>
<path d="M0 0 C2 2 2 2 2 5 C0.37550757 6.70779973 -1.29220027 8.37550757 -3 10 C-3.33 10.66 -3.66 11.32 -4 12 C-4.66 12 -5.32 12 -6 12 C-4.68139111 7.38486888 -2.78644563 3.90102388 0 0 Z " fill="#5540CC" transform="translate(211,118)"/>
<path d="M0 0 C1.13199353 0.9080162 2.25532363 1.82683826 3.375 2.75 C4.00148438 3.26046875 4.62796875 3.7709375 5.2734375 4.296875 C7.08312318 6.08199481 8.00117455 7.67949644 9 10 C8.01 10.495 8.01 10.495 7 11 C7 10.34 7 9.68 7 9 C6.401875 8.95875 5.80375 8.9175 5.1875 8.875 C3 8 3 8 1.25 5.0625 C0 2 0 2 0 0 Z " fill="#3E26CB" transform="translate(390,91)"/>
<path d="M0 0 C1.79068573 2.6860286 2.66055791 4.6626589 3.625 7.6875 C3.88539063 8.49574219 4.14578125 9.30398437 4.4140625 10.13671875 C4.60742188 10.75160156 4.80078125 11.36648437 5 12 C4.01 12.495 4.01 12.495 3 13 C2.67 11.68 2.34 10.36 2 9 C0.68 8.67 -0.64 8.34 -2 8 C-1.34 5.36 -0.68 2.72 0 0 Z " fill="#8BCCF4" transform="translate(132,227)"/>
<path d="M0 0 C0.33 0.66 0.66 1.32 1 2 C0.34 2 -0.32 2 -1 2 C-1.66 4.31 -2.32 6.62 -3 9 C-4.32 9 -5.64 9 -7 9 C-7 9.66 -7 10.32 -7 11 C-7.66 10.67 -8.32 10.34 -9 10 C-7.87970983 8.51726301 -6.75361382 7.03891114 -5.625 5.5625 C-4.99851563 4.73878906 -4.37203125 3.91507812 -3.7265625 3.06640625 C-2 1 -2 1 0 0 Z " fill="#442EC6" transform="translate(221,107)"/>
<path d="M0 0 C0.33 0.66 0.66 1.32 1 2 C1.66 2 2.32 2 3 2 C1.84414715 5.91211733 0.64465038 8.8745041 -2 12 C-2 9.03 -2 6.06 -2 3 C-1.34 3 -0.68 3 0 3 C0 2.01 0 1.02 0 0 Z " fill="#86CCF5" transform="translate(339,285)"/>
<path d="M0 0 C0.33 0 0.66 0 1 0 C1.99 4.62 2.98 9.24 4 14 C-0.77542897 9.22457103 -0.6938627 8.32683759 -1 2 C-0.67 1.34 -0.34 0.68 0 0 Z " fill="#5843CE" transform="translate(183,172)"/>
<path d="M0 0 C-4.75 4.875 -4.75 4.875 -7 6 C-7.66 5.67 -8.32 5.34 -9 5 C-8.625 3.0625 -8.625 3.0625 -8 1 C-5.29120665 -0.35439668 -2.99066732 -0.06501451 0 0 Z " fill="#462DD1" transform="translate(210,165)"/>
<path d="M0 0 C-2.62424658 1.74949772 -4.55727216 2.65389981 -7.5 3.625 C-8.66015625 4.01558594 -8.66015625 4.01558594 -9.84375 4.4140625 C-12 5 -12 5 -15 5 C-15 4.34 -15 3.68 -15 3 C-13.44033782 2.491217 -11.87710759 1.99336531 -10.3125 1.5 C-9.44238281 1.2215625 -8.57226562 0.943125 -7.67578125 0.65625 C-5.00608323 0.00149195 -2.73603316 -0.11831495 0 0 Z " fill="#96D0F0" transform="translate(196,376)"/>
<path d="M0 0 C0 1.65 0 3.3 0 5 C1.32 5.66 2.64 6.32 4 7 C4 7.99 4 8.98 4 10 C2.84775972 9.07038578 1.70340824 8.1309875 0.5625 7.1875 C-0.39462891 6.40439453 -0.39462891 6.40439453 -1.37109375 5.60546875 C-3 4 -3 4 -4 1 C-1 0 -1 0 0 0 Z " fill="#4129C5" transform="translate(163,245)"/>
<path d="M0 0 C3.36591866 1.44253657 5.51047079 3.33264727 8 6 C5.16032769 6 2.76264289 5.59732819 0 5 C0 3.35 0 1.7 0 0 Z " fill="#4229CF" transform="translate(377,80)"/>
<path d="M0 0 C4.29 0 8.58 0 13 0 C7 4 7 4 3 4 C2.01 2.68 1.02 1.36 0 0 Z " fill="#87CBF3" transform="translate(197,370)"/>
<path d="M0 0 C1.32 0 2.64 0 4 0 C2.95125002 2.62187494 2.35068687 3.79371361 -0.125 5.25 C-0.74375 5.4975 -1.3625 5.745 -2 6 C-2 2 -2 2 0 0 Z " fill="#82CCF4" transform="translate(317,316)"/>
<path d="M0 0 C0.66 0.33 1.32 0.66 2 1 C0.6875 3.5 0.6875 3.5 -1 6 C-1.99 6 -2.98 6 -4 6 C-4 6.99 -4 7.98 -4 9 C-5.32 8.67 -6.64 8.34 -8 8 C-5.36 5.36 -2.72 2.72 0 0 Z " fill="#513CCF" transform="translate(171,128)"/>
<path d="M0 0 C1.25127906 3.54667178 0.72285053 5.72253438 -0.4375 9.25 C-0.72496094 10.14203125 -1.01242187 11.0340625 -1.30859375 11.953125 C-1.53675781 12.62859375 -1.76492188 13.3040625 -2 14 C-2.33 14 -2.66 14 -3 14 C-3.34615998 8.34605369 -2.43425238 4.96993194 0 0 Z " fill="#96D5F3" transform="translate(289,302)"/>
<path d="M0 0 C1.65 0 3.3 0 5 0 C5 0.66 5 1.32 5 2 C6.65 2.33 8.3 2.66 10 3 C9.67 3.66 9.34 4.32 9 5 C6.03 4.01 3.06 3.02 0 2 C0 1.34 0 0.68 0 0 Z " fill="#452EC9" transform="translate(191,271)"/>
<path d="M0 0 C1.32 0.66 2.64 1.32 4 2 C2.8125 3.5625 2.8125 3.5625 1 5 C-1.6875 4.6875 -1.6875 4.6875 -4 4 C-2.68 2.68 -1.36 1.36 0 0 Z " fill="#84CBF4" transform="translate(115,223)"/>
<path d="M0 0 C0.66 0 1.32 0 2 0 C2.66 1.98 3.32 3.96 4 6 C3.01 6.99 2.02 7.98 1 9 C0.855625 8.21625 0.71125 7.4325 0.5625 6.625 C0.12201075 4.03578982 0.12201075 4.03578982 -1 2 C-0.67 1.34 -0.34 0.68 0 0 Z " fill="#3E23D1" transform="translate(194,205)"/>
<path d="M0 0 C0.99 0.33 1.98 0.66 3 1 C1.63016497 4.16115776 1.0109362 4.9927092 -2 7 C-2.6875 5.1875 -2.6875 5.1875 -3 3 C-1.5625 1.25 -1.5625 1.25 0 0 Z " fill="#85CEF7" transform="translate(327,306)"/>
<path d="M0 0 C2.97 0.495 2.97 0.495 6 1 C1.25 5.875 1.25 5.875 -1 7 C-0.67 4.69 -0.34 2.38 0 0 Z " fill="#8AC9EF" transform="translate(137,267)"/>
<path d="M0 0 C4.43458973 1.3937282 6.87378374 3.60582235 10 7 C8.35 6.67 6.7 6.34 5 6 C5 5.34 5 4.68 5 4 C4.360625 3.896875 3.72125 3.79375 3.0625 3.6875 C2.381875 3.460625 1.70125 3.23375 1 3 C0.67 2.01 0.34 1.02 0 0 Z " fill="#A0D4F2" transform="translate(307,180)"/>
<path d="M0 0 C1.953125 0.7109375 1.953125 0.7109375 4 2 C4.609375 4.1640625 4.609375 4.1640625 4.75 6.625 C4.80671875 7.44226563 4.8634375 8.25953125 4.921875 9.1015625 C4.94765625 9.72804687 4.9734375 10.35453125 5 11 C0 3.5 0 3.5 0 0 Z " fill="#5A46CC" transform="translate(357,132)"/>
<path d="M0 0 C2.56616632 3.84924948 2.55097676 6.4349304 3 11 C2.34 11 1.68 11 1 11 C-0.20272819 8.59454362 -0.10071472 7.05003047 -0.0625 4.375 C-0.05347656 3.55773437 -0.04445313 2.74046875 -0.03515625 1.8984375 C-0.02355469 1.27195312 -0.01195312 0.64546875 0 0 Z " fill="#4E39C8" transform="translate(410,123)"/>
<path d="M0 0 C2.97 0.33 5.94 0.66 9 1 C9 1.66 9 2.32 9 3 C6.03 2.67 3.06 2.34 0 2 C0 1.34 0 0.68 0 0 Z " fill="#8CCCF0" transform="translate(139,379)"/>
<path d="M0 0 C1.65 0.99 3.3 1.98 5 3 C4.67 3.66 4.34 4.32 4 5 C3.34 5 2.68 5 2 5 C1.67 5.66 1.34 6.32 1 7 C0.34 5.02 -0.32 3.04 -1 1 C-0.67 0.67 -0.34 0.34 0 0 Z " fill="#7CCBF9" transform="translate(84,332)"/>
<path d="M0 0 C3.48331435 3.01887244 4.79157144 5.56909529 6 10 C5.01 9.67 4.02 9.34 3 9 C2.05078125 6.93359375 2.05078125 6.93359375 1.3125 4.4375 C1.06113281 3.61121094 0.80976563 2.78492188 0.55078125 1.93359375 C0.36902344 1.29550781 0.18726563 0.65742188 0 0 Z " fill="#8DCDF0" transform="translate(139,247)"/>
<path d="M0 0 C0.66 0.33 1.32 0.66 2 1 C1.67 1.556875 1.34 2.11375 1 2.6875 C-0.1309601 5.30284522 -0.15662974 7.1806646 0 10 C-2.62386487 6.93882432 -3 6.26826873 -3 2 C-2.01 1.34 -1.02 0.68 0 0 Z " fill="#6C5CCB" transform="translate(345,180)"/>
<path d="M0 0 C2.97 0.495 2.97 0.495 6 1 C6 1.66 6 2.32 6 3 C3.69 3.33 1.38 3.66 -1 4 C-0.67 2.68 -0.34 1.36 0 0 Z " fill="#3B21CA" transform="translate(296,123)"/>
<path d="M0 0 C0.99 0.33 1.98 0.66 3 1 C1.25 3.0625 1.25 3.0625 -1 5 C-3.25 4.75 -3.25 4.75 -5 4 C-2.6875 1.9375 -2.6875 1.9375 0 0 Z " fill="#4027CB" transform="translate(227,102)"/>
<path d="M0 0 C2.31 0 4.62 0 7 0 C4.6875 2.0625 4.6875 2.0625 2 4 C1.01 3.67 0.02 3.34 -1 3 C-0.67 2.01 -0.34 1.02 0 0 Z " fill="#90CDF1" transform="translate(254,347)"/>
<path d="M0 0 C1 3 1 3 0.0625 5.1875 C-0.4634375 6.0846875 -0.4634375 6.0846875 -1 7 C-1 6.01 -1 5.02 -1 4 C-3.97 3.505 -3.97 3.505 -7 3 C-4.66785852 1.79371992 -2.50357861 0.8345262 0 0 Z " fill="#7869CF" transform="translate(241,225)"/>
<path d="M0 0 C2.64 0 5.28 0 8 0 C8.33 1.32 8.66 2.64 9 4 C6.03 3.01 3.06 2.02 0 1 C0 0.67 0 0.34 0 0 Z " fill="#90CFF0" transform="translate(272,221)"/>
<path d="M0 0 C0.66 0 1.32 0 2 0 C2.9765625 6.0546875 2.9765625 6.0546875 3 8 C2.34 8.66 1.68 9.32 1 10 C-0.1577506 6.52674819 -0.06866652 3.63932552 0 0 Z " fill="#3E26CC" transform="translate(345,185)"/>
<path d="M0 0 C0.99 0.33 1.98 0.66 3 1 C3 2.98 3 4.96 3 7 C1.68 6.01 0.36 5.02 -1 4 C-0.67 2.68 -0.34 1.36 0 0 Z " fill="#93CDF3" transform="translate(98,352)"/>
<path d="M0 0 C0.33 0.99 0.66 1.98 1 3 C-0.98 4.32 -2.96 5.64 -5 7 C-5.66 6.67 -6.32 6.34 -7 6 C-4.69 4.02 -2.38 2.04 0 0 Z " fill="#A2D6F4" transform="translate(107,229)"/>
<path d="M0 0 C0.99 0 1.98 0 3 0 C2.34 2.64 1.68 5.28 1 8 C0.34 8 -0.32 8 -1 8 C-0.67 5.36 -0.34 2.72 0 0 Z " fill="#8FCDF2" transform="translate(258,179)"/>
<path d="M0 0 C1.32 0 2.64 0 4 0 C4 0.99 4 1.98 4 3 C1.69 3.66 -0.62 4.32 -3 5 C-3 4.34 -3 3.68 -3 3 C-2.01 3 -1.02 3 0 3 C0 2.01 0 1.02 0 0 Z " fill="#472FC7" transform="translate(219,157)"/>
<path d="M0 0 C0.66 0 1.32 0 2 0 C2.66 2.31 3.32 4.62 4 7 C3.01 7.495 3.01 7.495 2 8 C0.23537317 4.91190305 0 3.76687864 0 0 Z " fill="#4B34CA" transform="translate(405,113)"/>
<path d="M0 0 C2.25245881 2.68841859 3.88213958 4.64641875 5 8 C4.01 8.33 3.02 8.66 2 9 C0.50178941 5.62902617 0 3.79557881 0 0 Z " fill="#513BCB" transform="translate(399,101)"/>
<path d="M0 0 C2 1 2 1 2 1 Z M2 3 C1.34 3 0.68 3 0 3 C0 3.66 0 4.32 0 5 C-1.98 4.34 -3.96 3.68 -6 3 C-6 2.67 -6 2.34 -6 2 C-1.375 0.75 -1.375 0.75 2 3 Z " fill="#80C9F5" transform="translate(125,370)"/>
<path d="M0 0 C0.99 0.99 1.98 1.98 3 3 C2.34 4.98 1.68 6.96 1 9 C0.67 9 0.34 9 0 9 C0 6.03 0 3.06 0 0 Z " fill="#533CCE" transform="translate(406,180)"/>
<path d="M0 0 C2.31 0.33 4.62 0.66 7 1 C5.25 2.5625 5.25 2.5625 3 4 C0.75 3.6875 0.75 3.6875 -1 3 C-0.67 2.01 -0.34 1.02 0 0 Z " fill="#4932C8" transform="translate(234,150)"/>
<path d="M0 0 C1 3 1 3 0.3125 5.125 C-1 7 -1 7 -3.125 7.75 C-4.053125 7.87375 -4.053125 7.87375 -5 8 C-3.62845496 5.04590299 -2.01136276 2.55991624 0 0 Z " fill="#624ECF" transform="translate(162,137)"/>
<path d="M0 0 C1.0326802 2.78823655 1.04509293 3.8677274 0.0625 6.75 C-0.288125 7.4925 -0.63875 8.235 -1 9 C-1.33 9 -1.66 9 -2 9 C-2 6.36 -2 3.72 -2 1 C-1.34 0.67 -0.68 0.34 0 0 Z " fill="#5842CC" transform="translate(189,121)"/>
<path d="M0 0 C3.37503669 1.1858237 5.64722731 2.27573689 8 5 C4.62537285 4.45276317 2.91765 3.9451 0 2 C0 1.34 0 0.68 0 0 Z " fill="#5945CB" transform="translate(369,75)"/>
<path d="" fill="#FFFFFF" transform="translate(0,0)"/>
<path d="" fill="#FFFFFF" transform="translate(0,0)"/>
<path d="" fill="#FFFFFF" transform="translate(0,0)"/>
<path d="" fill="#FFFFFF" transform="translate(0,0)"/>
<path d="" fill="#FFFFFF" transform="translate(0,0)"/>
<path d="" fill="#FFFFFF" transform="translate(0,0)"/>
<path d="" fill="#FFFFFF" transform="translate(0,0)"/>
<path d="" fill="#FFFFFF" transform="translate(0,0)"/>
<path d="" fill="#FFFFFF" transform="translate(0,0)"/>
<path d="" fill="#FFFFFF" transform="translate(0,0)"/>
<path d="" fill="#FFFFFF" transform="translate(0,0)"/>
<path d="" fill="#FFFFFF" transform="translate(0,0)"/>
<path d="" fill="#FFFFFF" transform="translate(0,0)"/>
<path d="" fill="#FFFFFF" transform="translate(0,0)"/>
<path d="" fill="#FFFFFF" transform="translate(0,0)"/>
<path d="" fill="#FFFFFF" transform="translate(0,0)"/>
<path d="" fill="#FFFFFF" transform="translate(0,0)"/>
<path d="" fill="#FFFFFF" transform="translate(0,0)"/>
<path d="" fill="#FFFFFF" transform="translate(0,0)"/>
<path d="" fill="#FFFFFF" transform="translate(0,0)"/>
<path d="" fill="#FFFFFF" transform="translate(0,0)"/>
<path d="" fill="#FFFFFF" transform="translate(0,0)"/>
<path d="" fill="#FFFFFF" transform="translate(0,0)"/>
<path d="" fill="#FFFFFF" transform="translate(0,0)"/>
<path d="" fill="#FFFFFF" transform="translate(0,0)"/>
<path d="" fill="#FFFFFF" transform="translate(0,0)"/>
<path d="" fill="#FFFFFF" transform="translate(0,0)"/>
<path d="" fill="#FFFFFF" transform="translate(0,0)"/>
<path d="" fill="#FFFFFF" transform="translate(0,0)"/>
<path d="" fill="#FFFFFF" transform="translate(0,0)"/>
<path d="" fill="#FFFFFF" transform="translate(0,0)"/>
<path d="" fill="#FFFFFF" transform="translate(0,0)"/>
<path d="" fill="#FFFFFF" transform="translate(0,0)"/>
<path d="" fill="#FFFFFF" transform="translate(0,0)"/>
<path d="" fill="#FFFFFF" transform="translate(0,0)"/>
<path d="" fill="#FFFFFF" transform="translate(0,0)"/>
<path d="" fill="#FFFFFF" transform="translate(0,0)"/>
<path d="" fill="#FFFFFF" transform="translate(0,0)"/>
<path d="" fill="#FFFFFF" transform="translate(0,0)"/>
<path d="" fill="#FFFFFF" transform="translate(0,0)"/>
<path d="" fill="#FFFFFF" transform="translate(0,0)"/>
<path d="" fill="#FFFFFF" transform="translate(0,0)"/>
<path d="" fill="#FFFFFF" transform="translate(0,0)"/>
<path d="" fill="#FFFFFF" transform="translate(0,0)"/>
<path d="" fill="#FFFFFF" transform="translate(0,0)"/>
<path d="" fill="#FFFFFF" transform="translate(0,0)"/>
<path d="" fill="#FFFFFF" transform="translate(0,0)"/>
<path d="" fill="#FFFFFF" transform="translate(0,0)"/>
<path d="" fill="#FFFFFF" transform="translate(0,0)"/>
<path d="" fill="#FFFFFF" transform="translate(0,0)"/>
<path d="" fill="#FFFFFF" transform="translate(0,0)"/>
</svg>
