<?xml version="1.0" standalone="no"?>
<!DOCTYPE svg PUBLIC "-//W3C//DTD SVG 1.0//EN" "http://www.w3.org/TR/2001/REC-SVG-20010904/DTD/svg10.dtd">
<svg xmlns="http://www.w3.org/2000/svg" xmlns:xlink="http://www.w3.org/1999/xlink" id="body_1" width="512" height="512">

<g transform="matrix(1 0 0 1 0 0)">
	<g transform="matrix(1 0 0 1 297.22034 0)">
        <path d="M-297.22034 64C -297.22034 28.653776 -268.56656 5.684342E-14 -233.22034 5.684342E-14L-233.22034 5.684342E-14L150.77966 5.684342E-14C 186.12589 5.684342E-14 214.77966 28.653776 214.77966 64L214.77966 64L214.77966 448C 214.77966 483.34622 186.12589 512 150.77966 512L150.77966 512L-233.22034 512C -268.56656 512 -297.22034 483.34622 -297.22034 448L-297.22034 448L-297.22034 64z" stroke="none" fill="#64A9DC" fill-rule="nonzero" />
        <path d="M127.88103 94.198044L-218.4667 227.78506C -242.1055 237.2694 -241.9653 250.45407 -222.77542 256.33322L-222.77542 256.33322L-136.39525 283.29422L-103.34417 384.62628C -99.326126 395.71704 -101.30685 400.1158 -89.66044 400.1158C -80.67258 400.1158 -76.685394 396.01804 -71.679565 391.12796C -68.49626 388.01282 -49.595787 369.6371 -28.492046 349.1186L-28.492046 349.1186L61.35953 415.505C 77.89343 424.62662 89.8318 419.90118 93.94888 400.14923L93.94888 400.14923L152.92947 122.20987C 158.96812 98.000015 143.69981 87.01856 127.88103 94.198044zM-122.83885 277.09998L71.86253 154.2616C 81.58222 148.36702 90.494194 151.53618 83.177086 158.0314L83.177086 158.0314L-83.5382 308.45074L-90.029564 377.68607L-122.83885 277.09998z" stroke="none" fill="#FFFFFF" fill-rule="nonzero" />
	</g>
</g>
</svg>